<?xml version="1.0" encoding="UTF-8"?><svg id="Layer_1" xmlns="http://www.w3.org/2000/svg" viewBox="0 0 646.97 630.24"><path d="M304.76.45c191.39-9.79,348.86,141.68,341.99,333.95-9.08,254.15-310.68,376.15-512.39,238.41C-114.46,402.92,5.42,15.76,304.76.45ZM301.77,13.44C33.06,27.69-89.95,368.06,118.62,544.6c186.75,158.07,503.85,45.64,515.18-208.22C642.2,148.33,487.57,3.58,301.77,13.44Z"/><path d="M549.57,475.93c5.05,5.06-6.21,18.22-9.73,22.27-79.15,90.98-261.89,107.29-363.46,48.6-20.88-12.06-51.35-37.23-29.82-63.12,34.75-41.78,115.52-9.96,157.99.93,64.32,16.5,127.97,19.43,192.72,3,12.15-3.08,37.3-13.73,48.05-12.92,1.24.09,3.39.39,4.25,1.25ZM538.82,484.69c-10.62,2.56-20.52,7.38-30.98,10.48-68.81,20.39-140.24,17.57-209.08-.78-39.04-10.41-100.03-36.43-136.83-9.34-28.17,20.74,6.05,43.53,24.44,53.75,59.04,32.8,141.53,36.94,206.72,23.49,54.06-11.15,108.21-36.67,145.72-77.6Z"/><path d="M318.67,41.32c5.93-1.35,10.06,1.66,13.69,5.87,9.6,11.13,20.57,30.15,28.98,42.96,25.43,38.71,65.3,96.7,68.58,143.24,9.9,140.46-209.57,146.92-215.94,13.07-2.73-57.28,55.14-138.97,87.57-185.28,3.41-4.86,11.83-18.66,17.12-19.86ZM321.48,53.11c-15.71,22.67-31.35,45.58-45.91,69.01-29.27,47.1-68.52,108.71-36.37,164.06,31.88,54.88,118.11,59.83,158.73,12.21,50.86-59.63-9.73-144.6-43.58-197.25-7.75-12.05-21.75-37.03-30.55-46.39-.69-.73-.88-2-2.33-1.64Z"/><path d="M119.89,382.08c96.14-8.24,163.79,49.42,249.82,73.35,17.57,4.89,42.19,7.57,58.16,13.79,8.31,3.24,9.7,9.01,1.24,13.19-16.98,8.4-52.7,4.93-71.4,2-61.32-9.61-122.98-47.72-186.66-31.2-14.85,3.85-32.59,12.54-42.39,24.56-7.97,9.77-8.9,22.91-25.27,14.11-11.78-6.33-27.66-27.99-32.46-40.48-15.85-41.24,8.72-65.87,48.95-69.32ZM418.89,475.7c-11.78-.91-24.36-3.78-35.98-6.49-79.54-18.57-145.73-68.76-227.35-76.43-33.08-3.11-86.12-.51-75.99,47,3.44,16.15,17.74,35.67,31.99,43.93,8.71-21.47,29.53-34.07,51.08-39.91,75.73-20.5,141.83,25.15,214.91,32.76,10.91,1.14,29.34,2.47,39.87,1.13,1.46-.19,3.11-.78,1.48-1.99Z"/><path d="M518.63,376.09c29.08-2.38,79.25,7.46,63.93,47.93-16.49,43.57-100.18,45.69-137.91,40.42-20.7-2.89-93.78-21.26-107.72-34.18-1.62-1.5-3.14-3.07-3.85-5.24-.78-5.36,10.5-7.79,14.48-8.13,14.54-1.27,28.44,1.08,44.69-1.29,44.9-6.57,82.58-35.91,126.38-39.5ZM348.95,427.73c45.1,15.34,93.01,31.18,141.44,29.03,22.86-1.02,51.58-6.46,69.43-21.51,25.9-21.83,11.87-46.29-18.62-49.34-48.83-4.89-87.96,27.08-133.45,37.18-18.24,4.05-36.85,5.2-55.32,3.66-1.09-.09-3.73-.73-3.47.98Z"/><path d="M538.82,484.69c-37.51,40.93-91.65,66.45-145.72,77.6-65.19,13.45-147.68,9.31-206.72-23.49-18.39-10.22-52.61-33.01-24.44-53.75,36.8-27.09,97.79-1.07,136.83,9.34,68.84,18.35,140.27,21.17,209.08.78,10.46-3.1,20.36-7.91,30.98-10.48Z"/><path d="M321.48,53.11c1.44-.36,1.64.91,2.33,1.64,8.79,9.35,22.8,34.34,30.55,46.39,33.86,52.65,94.44,137.62,43.58,197.25-40.62,47.62-126.85,42.67-158.73-12.21-32.16-55.35,7.1-116.96,36.37-164.06,14.56-23.43,30.2-46.34,45.91-69.01ZM266.65,198.08c-9.02,4.87-13.54,14.95-15.37,24.63-5.53,29.29,8.5,61.38,37.18,72.18,9.72,3.66,27.72,7.85,35.48-.52,0-2.47-14.65-6.03-17.65-7.31-26.7-11.41-42.65-40.93-40.28-69.6.49-5.99,3.2-11.91,2.85-17.84l-2.21-1.53Z"/><path d="M418.89,475.7c1.64,1.22-.02,1.81-1.48,1.99-10.52,1.34-28.96,0-39.87-1.13-73.08-7.61-139.18-53.26-214.91-32.76-21.56,5.83-42.37,18.44-51.08,39.91-14.25-8.26-28.55-27.78-31.99-43.93-10.13-47.51,42.91-50.1,75.99-47,81.62,7.67,147.81,57.86,227.35,76.43,11.62,2.71,24.21,5.58,35.98,6.49Z"/><path d="M348.95,427.73c-.26-1.71,2.38-1.07,3.47-.98,18.48,1.54,37.09.39,55.32-3.66,45.49-10.1,84.62-42.08,133.45-37.18,30.49,3.06,44.52,27.51,18.62,49.34-17.85,15.05-46.57,20.49-69.43,21.51-48.44,2.16-96.34-13.69-141.44-29.03Z"/></svg>