<?xml version="1.0" encoding="UTF-8"?><svg id="Layer_1" xmlns="http://www.w3.org/2000/svg" viewBox="0 0 681.55 681.63"><path d="M178.59,1.14c109.08-3.32,218.61,1.9,327.75-.34,53.83,1.7,98.73,9.1,135.97,51.03,32.25,36.3,35.62,71.82,37.5,118.5,4.47,111.23-1.32,223.59,1.04,335.06-1.68,54.79-9.04,100.27-52.03,137.97-35.27,30.92-70.45,34.57-115.56,36.44-112.22,4.66-225.57-1.36-338.01,1.09-54.35-1.66-98.33-8.82-135.97-51.03C7.27,593.95,3.68,558.66,1.78,512.35c-4.57-111.88,1.4-224.93-1.03-337.05,1.29-46.22,6.76-87.93,38.53-123.47C78.51,7.94,122.42,2.84,178.59,1.14ZM312.58,130.14c-56.88,5.31-58.66,104.88-.16,109.57,68.76,5.51,70.75-116.16.16-109.57ZM197.79,131.84h-41l.14,6.86,10.22,2.05c.91.64,1.37,3.49,1.52,4.69,2.22,18.82,1.41,56.41.17,75.94-.11,1.79-.3,6.58-1.68,7.55l-10.22,2.05-.14,6.86h41l-.05-6.95c-2.89-.31-10.95-.72-10.95-4.55v-38.5h42v38.5c0,6.12-18.53.03-10.5,11.5h39.5v-8s-10.08-1.66-10.08-1.66l-.47-85.38,1.54-2.46,8.9-1.6.11-6.9h-41v7c3.94-.22,12,.25,12,5.5v36.5h-42v-37.5c0-4.14,8.01-3.63,10.89-4.6l.11-6.9ZM416.79,131.84h-41l.14,6.86,10.26,2.03c.9.64,1.54,6.06,1.64,7.57,1.41,19.9,1.79,55.43-.05,75.02-.17,1.81-.49,4.14-1.62,5.6-3.84,2.69-15.23-1.94-8.86,8.91h77.5c.3-8.28-1.23-16.24-1.05-24.55.07-2.92,2.57-9.28-.6-10.31l-6.36-.15c-.96,11.34-1.38,25.5-15.5,27.01-3.32.35-21.57.44-23.51-.5-.84-.41-1.53-1.31-1.79-2.21l-.17-83.77c.96-4.96,7.1-3.15,10.86-4.63l.11-6.9ZM484.79,131.84h-37l.05,7.96c4.64-.55,5.67,2.45,7.76,5.74,10.58,16.69,18.77,36.89,28.97,54.03-.24,4.87,1.94,27.98-1.98,29.61-5.14,2.15-14.03-1.58-8.29,8.66h39.5l-.05-6.95c-3.03-.61-9.72-.28-10.75-3.75-.76-2.56-.68-30.53.01-33.59,10.06-13.44,16.78-40.81,27.89-52.11,3.5-3.56,6.38-1.24,4.9-9.6h-31v7.01c3.82-.22,11.2-.15,12,4.54,1.65,9.66-16.55,33.85-19.01,44.46l-22.96-42.56.96-4.96,9.01-1.49v-6.99ZM199.8,323.85c16.12-5.33,21.62-27.64,9.48-40-11.23-11.44-36.04-7.53-51.03-7.97-3.12-.09-14.18-2.75-16.02-.11v6.13c2.16,3.07,10.53-3.49,11.6,9.39,2.01,24.27-1.49,51.36-.14,75.94-1.25,9.56-9.56,4.86-11.47,7.53l.5,6.64,52.46-.68c26.05-3.04,38.63-33.72,17.1-50.89l-12.49-5.99ZM274.8,275.84l-40.07-.56-.94,7.57c10.13-.83,11.31.99,12.04,10.46,1.44,18.52,1.64,52.66-.05,71.02-.16,1.75-.91,7.09-1.97,8.03l-10.02,1.48.15,6.37,1.5,1.5,38.42-.3.94-7.57c-3.49,0-10.19.93-11.01-3.49l-.05-83.05,1.03-2.97,10.03-1.48v-7.01ZM343.8,323.86c20.94-9.13,21.42-38.58-1.46-46.07-11.47-3.75-27.74-1.54-40.09-1.91-5.16-.15-10.93-1.95-16.46-1.05v8.01s10.54,1.96,10.54,1.96l.52,2.48c-2.35,25.82,3,56.79-.16,81.99-.16,1.26-.38,2.93-1.65,3.57l-9.26.99v8.01c16.96-2.86,35.51.63,52.38-1.13,25.34-2.64,38.75-30.67,19.65-49.4l-14.01-7.46ZM417.79,275.84h-39.5c-2.11,1.56-1.69,4.53-1.39,6.89l10.25,2.01c1.01.7,1.49,4.24,1.62,5.6,1.76,18.74,1.77,57.28.06,76.04-.99,10.84-9.58,5.51-11.61,8.38l-.43,6.07h79c.24-11.42-2.49-22.63,0-34h-8c-.39,7.24-1.59,21.08-8.72,24.77-5.45,2.82-18.51,2.7-24.82,2.27-6.02-.41-6.97-.17-7.5-6.5-2.11-25.23,1.6-53.43.11-78.97l1.95-4.05,8.93-1.56.05-6.95ZM540.79,275.84h-76v6.99c5.95.57,10.37-.39,11.06,6.45,2.52,25.06-1.92,54.46-.16,79.99l-1.65,3.57-9.26.99v7.01h79.01c.58-1.4-1-3-1-3.5v-29.5l-7.57.93c-1.12,12.97-1.68,23.52-16.95,25.05-4.01.4-16.4.68-19.96-.02-2.53-.49-4.53-4.3-4.53-6.47v-35.5c15.16-2.07,19.51,4.73,18.99,19.01,1.99-.63,8.23,1.58,8.02-1.5l-1.01-43.51-6.86.14c-1.88,13.3-3.22,21.19-19.14,18.86v-36.5c0-.62,1.36-2.49,1.51-3.49.44-.81,1.17-.87,1.97-1.03,3.64-.72,23.9-.3,27.09.94,8.14,3.19,6.19,14.13,8.57,20.94l6.86.14v-26.5c0-.5,1.58-2.1,1-3.5ZM647.78,462.84c-25.53,37.43-67.76,52.18-111.5,55.99-146.77,3.16-294.02-1.33-440.71,2.29-58.15,9.39-51.69,66.1-14.25,97.69,15.43,13.02,38.07,22.27,58.09,24.91,122.41-1.47,248.81,6.28,370.84.08,92.96-4.72,130.17-44.26,136.53-136.47l1-44.49Z" fill="#A3524A"/><path d="M647.78,462.84l-1,44.49c-6.36,92.21-43.57,131.75-136.53,136.47-122.02,6.2-248.43-1.55-370.84-.08-20.02-2.64-42.66-11.89-58.09-24.91-37.44-31.59-43.91-88.3,14.25-97.69,146.7-3.61,293.95.88,440.71-2.29,43.73-3.81,85.97-18.56,111.5-55.99ZM231.79,536.84h-106v79l53.5-26.63,52.5,25.63v-78Z" fill="#FDF8F0"/><path d="M197.79,131.84l-.11,6.9c-2.88.98-10.89.47-10.89,4.6v37.5h42v-36.5c0-5.25-8.06-5.72-12.01-5.5v-7h41.01l-.11,6.9-8.9,1.6-1.54,2.46.47,85.38,10.08,1.66v8h-39.51c-8.03-11.47,10.5-5.38,10.5-11.5v-38.5h-42v38.5c0,3.83,8.06,4.24,10.95,4.55l.05,6.95h-41l.14-6.86,10.22-2.05c1.39-.97,1.57-5.76,1.68-7.55,1.24-19.53,2.05-57.13-.17-75.94-.14-1.2-.61-4.05-1.52-4.69l-10.22-2.05-.14-6.86h41Z" fill="#FDF8F0"/><path d="M343.8,323.86l14.01,7.46c19.11,18.73,5.7,46.76-19.65,49.4-16.87,1.76-35.42-1.73-52.38,1.13v-8.01s9.25-.99,9.25-.99c1.26-.64,1.49-2.31,1.65-3.57,3.16-25.2-2.2-56.17.16-81.99l-.52-2.48-10.54-1.96v-8.01c5.54-.91,11.31.89,16.46,1.05,12.36.37,28.62-1.85,40.09,1.91,22.87,7.48,22.4,36.93,1.46,46.07ZM314.79,322.84c9.23.02,18.5,1.4,23.55-7.95,3.63-6.71,4.19-23.85-2.19-28.91-4.88-3.87-21.36-6.02-21.36,2.36v34.5ZM314.79,329.84v37.5c0,11,22.08,5.74,27.54.54,6.57-6.25,7.64-22.72,2.91-29.99-1.68-2.58-9.16-8.05-11.95-8.05h-18.5Z" fill="#FDF8F0"/><path d="M199.8,323.85l12.49,5.99c21.53,17.17,8.94,47.85-17.1,50.89l-52.46.68-.5-6.64c1.91-2.67,10.21,2.03,11.47-7.53-1.36-24.58,2.14-51.67.14-75.94-1.07-12.89-9.44-6.33-11.6-9.39v-6.13c1.84-2.65,12.9.02,16.02.11,14.99.44,39.8-3.47,51.03,7.97,12.14,12.36,6.64,34.67-9.48,40ZM171.79,322.84c16.04,1.69,25.87-3.33,26.08-20.49s-8.47-21.9-24.08-19.01c-.45.27-2,2.72-2,3v36.5ZM171.79,329.84v40.5c0,4.79,15.17,2.81,18.06,2.06,14.53-3.8,18.4-21.09,12.46-33.57-1.91-4-8.77-8.99-13.01-8.99h-17.5Z" fill="#FDF8F0"/><path d="M312.58,130.14c70.59-6.59,68.6,115.09-.16,109.57-58.5-4.69-56.72-104.26.16-109.57ZM314.57,137.07c-33.01,3.46-35.32,81.06-6.13,93.62,41.46,17.84,51.16-77.51,16.72-91.72-3.68-1.52-6.58-2.32-10.59-1.9Z" fill="#FDF8F0"/><path d="M540.79,275.84c.58,1.4-1,3-1,3.5v26.5l-6.86-.14c-2.38-6.8-.43-17.75-8.57-20.94-3.19-1.25-23.45-1.66-27.09-.94-.8.16-1.53.22-1.97,1.03-.15,1-1.51,2.88-1.51,3.49v36.5c15.92,2.32,17.26-5.56,19.14-18.86l6.86-.14,1.01,43.51c.21,3.08-6.03.87-8.02,1.5.52-14.28-3.83-21.08-18.99-19.01v35.5c0,2.17,1.99,5.98,4.53,6.47,3.56.69,15.95.42,19.96.02,15.27-1.54,15.83-12.08,16.95-25.05l7.57-.93v29.5c0,.5,1.58,2.1,1,3.5h-79v-7.01s9.26-.99,9.26-.99l1.65-3.57c-1.76-25.53,2.68-54.93.16-79.99-.69-6.84-5.11-5.88-11.05-6.45v-6.99s75.99,0,75.99,0Z" fill="#FDF8F0"/><path d="M484.79,131.84v6.99s-9.02,1.49-9.02,1.49l-.96,4.96,22.96,42.56c2.46-10.61,20.66-34.8,19.01-44.46-.8-4.69-8.18-4.76-12-4.54v-7.01h31.01c1.47,8.36-1.4,6.04-4.9,9.6-11.11,11.3-17.82,38.67-27.89,52.11-.69,3.06-.77,31.03-.01,33.59,1.03,3.47,7.72,3.14,10.75,3.75l.05,6.95h-39.5c-5.74-10.24,3.16-6.52,8.29-8.66,3.92-1.64,1.74-24.74,1.98-29.61-10.2-17.13-18.4-37.34-28.97-54.03-2.08-3.29-3.12-6.29-7.76-5.74l-.05-7.96h37Z" fill="#FDF8F0"/><path d="M416.79,131.84l-.11,6.9c-3.76,1.48-9.91-.32-10.86,4.63l.17,83.77c.26.89.96,1.8,1.79,2.21,1.93.94,20.19.85,23.51.5,14.11-1.51,14.53-15.66,15.5-27.01l6.36.15c3.17,1.03.66,7.39.6,10.31-.19,8.31,1.35,16.27,1.05,24.55h-77.5c-6.36-10.85,5.03-6.22,8.86-8.91,1.14-1.46,1.45-3.79,1.62-5.6,1.84-19.6,1.46-55.13.05-75.02-.11-1.51-.74-6.94-1.64-7.57l-10.26-2.03-.14-6.86h41Z" fill="#FDF8F0"/><path d="M417.79,275.84l-.05,6.95-8.93,1.56-1.95,4.05c1.49,25.55-2.22,53.75-.11,78.97.53,6.33,1.48,6.09,7.5,6.5,6.31.43,19.37.55,24.82-2.27,7.13-3.69,8.33-17.53,8.72-24.78h8c-2.49,11.38.24,22.58,0,34.01h-79l.43-6.07c2.03-2.87,10.62,2.46,11.61-8.38,1.71-18.76,1.7-57.3-.06-76.04-.13-1.36-.61-4.91-1.62-5.6l-10.25-2.01c-.3-2.36-.73-5.33,1.39-6.89h39.5Z" fill="#FDF8F0"/><path d="M274.8,275.84v7.01s-10.03,1.48-10.03,1.48l-1.03,2.97.05,83.05c.82,4.43,7.51,3.49,11.01,3.49l-.94,7.57-38.42.3-1.5-1.5-.15-6.37,10.02-1.48c1.06-.94,1.81-6.28,1.97-8.03,1.69-18.36,1.5-52.5.05-71.02-.74-9.47-1.91-11.28-12.04-10.46l.94-7.57,40.07.56Z" fill="#FDF8F0"/><polygon points="231.79 536.84 231.79 614.84 179.29 589.21 125.79 615.84 125.79 536.84 231.79 536.84" fill="#E85858"/><path d="M314.79,329.84h18.5c2.79,0,10.27,5.47,11.95,8.05,4.73,7.27,3.66,23.75-2.91,29.99-5.47,5.2-27.54,10.45-27.54-.54v-37.5Z" fill="#A3524A"/><path d="M314.79,322.84v-34.5c0-8.39,16.49-6.24,21.36-2.36,6.37,5.06,5.81,22.21,2.19,28.91-5.05,9.35-14.32,7.97-23.55,7.95Z" fill="#A3524A"/><path d="M171.79,329.84h17.5c4.24,0,11.11,4.98,13.01,8.99,5.95,12.48,2.07,29.78-12.46,33.57-2.88.75-18.06,2.74-18.06-2.06v-40.5Z" fill="#A3524A"/><path d="M171.79,322.84v-36.5c0-.28,1.55-2.73,2-3,15.6-2.89,24.27,2.59,24.08,19.01s-10.03,22.17-26.08,20.49Z" fill="#A3524A"/><path d="M314.57,137.07c4.01-.42,6.91.38,10.59,1.9,34.45,14.21,24.74,109.56-16.72,91.72-29.19-12.56-26.87-90.16,6.13-93.62Z" fill="#A3524A"/></svg>
