<?xml version="1.0" encoding="UTF-8"?><svg id="Layer_1" xmlns="http://www.w3.org/2000/svg" viewBox="0 0 155.91 69.48"><path d="M0,0h30.46v7.55l2.44-1.58c21.74-10.75,42,5.58,61.65,12.6,2.29.82,4.62,1.57,6.96,2.26,11.62-3.8,23.06-8.22,34.65-12.09,17.47-5.82,27.57,17.39,12.21,26.45l-45.42,26.26H30.46v8.03H0V0ZM25.42,4.91H5.04v59.66h20.38V4.91ZM60.79,31.51h36.15c.2,0,1.11-.44,1.34-.58,1.72-1.02,2.66-3.56,1.59-5.35-4.74-1.5-9.44-3.11-14.02-5.04-12.96-5.46-24.54-13.65-39.4-13-5.09.22-11.99,1.73-14.97,6.25-.23.35-1.03,1.76-1.03,2.09v40.55h71.29l45.5-26.42c8.2-6.65,1.62-19.58-8.59-16.85l-33.48,11.71c-.27.21.1,1.2.12,1.56.28,4.78-3.35,10.12-8.45,10.12h-36.03v-5.03Z"/></svg>