<svg xmlns="http://www.w3.org/2000/svg" width="22.777" height="24" viewBox="0 0 22.777 24"><g transform="translate(-6757.558 5391.5)"><g transform="translate(6757.558 -5376.74)"><path d="M22.411,304.65a1.255,1.255,0,0,0-1.775,0l-3.4,3.4a2.572,2.572,0,0,1-1.831.758s-3.006-.15-3.2-.223-.706-.545.136-.879a11.2,11.2,0,0,1,3.059-.232,1.255,1.255,0,0,0,0-2.509H9.156a3.2,3.2,0,0,0-3.391,2.182l-.157.444H0v5.935H9.757l7.527-1.971,5.127-5.127A1.255,1.255,0,0,0,22.411,304.65Z" transform="translate(-0.002 -304.282)" fill="currentColor"/></g><g transform="translate(6761.818 -5391.5)"><path d="M14.279,31.173a3.879,3.879,0,0,0-6.194.446,5.9,5.9,0,0,0-.383.622,5.9,5.9,0,0,0-.383-.622,3.879,3.879,0,0,0-6.194-.446A4.669,4.669,0,0,0,0,34.274a5.717,5.717,0,0,0,1.575,3.751,35.057,35.057,0,0,0,3.941,3.682c.6.508,1.212,1.033,1.869,1.607l.02.017a.451.451,0,0,0,.594,0l.02-.017c.656-.574,1.273-1.1,1.869-1.607a35.051,35.051,0,0,0,3.941-3.682A5.717,5.717,0,0,0,15.4,34.274,4.669,4.669,0,0,0,14.279,31.173ZM9.3,41.02c-.514.438-1.043.888-1.6,1.373-.558-.485-1.086-.935-1.6-1.373C2.971,38.352.9,36.59.9,34.274a3.768,3.768,0,0,1,.9-2.5,3.012,3.012,0,0,1,2.29-1.031,3.042,3.042,0,0,1,2.49,1.4,5.35,5.35,0,0,1,.691,1.374.451.451,0,0,0,.858,0,5.35,5.35,0,0,1,.691-1.374,2.978,2.978,0,0,1,4.781-.371,3.768,3.768,0,0,1,.9,2.5C14.5,36.59,12.432,38.352,9.3,41.02Z" transform="translate(0 -29.836)" fill="currentColor"/><path d="M-17541.93-11521.2l-1.457-1.839-2.031-.566-2.121.75-1.207,1.655-.156,2.02.332,1.5,1.57,2.008,5.3,4.623,6.094-5.455.887-1.885.137-2.021-.637-1.636-.879-.994-1.148-.566h-1.141l-1.121.193-1.32,1.367-.625.845Z" transform="translate(17549.477 11524.147)" fill="currentColor"/></g></g></svg>